<svg viewBox="0 0 61.6 41.9">
<style type="text/css">
	.st0{fill:none;stroke:#252A3F;stroke-width:3;stroke-linecap:round;stroke-linejoin:round;stroke-miterlimit:10;}
	.st1{fill:none;stroke:#252A3F;stroke-width:3;stroke-miterlimit:10;}
</style>
<defs>
</defs>
<path class="st0" d="M51.3,18.3c5,1.1,8.7,5.6,8.7,10.9c0,6.2-5,11.2-11.2,11.2H12.7C6.5,40.4,1.5,36,1.5,29.9
	c0-5.3,3.7-9.7,8.6-10.9c-0.3-0.9-0.5-1.9-0.5-2.9c0-5,4-9,9-9c2.5,0,4.7,1,6.3,2.6v0c2.2-4.8,7.1-8.2,12.7-8.2c7.7,0,14,6.2,14,14
	C51.6,16.4,51.3,18.3,51.3,18.3L51.3,18.3z"/>
<path class="st1" d="M16.9,21.5c3.4,3.4,3.6,7.1,3.6,7.1c0,2-1.6,3.6-3.6,3.6c-2,0-3.6-1.6-3.6-3.6C13.4,28.6,13.5,24.9,16.9,21.5z"
	/>
<path class="st1" d="M44.6,21.5c3.4,3.4,3.6,7.1,3.6,7.1c0,2-1.6,3.6-3.6,3.6c-2,0-3.6-1.6-3.6-3.6C41,28.6,41.2,24.9,44.6,21.5z"/>
<path class="st1" d="M30.8,24.8c3.4,3.4,3.6,7.1,3.6,7.1c0,2-1.6,3.6-3.6,3.6c-2,0-3.6-1.6-3.6-3.6C27.2,31.9,27.3,28.3,30.8,24.8z"
	/>
</svg>
