<!-- <svg viewBox="0 0 500 500">
<style>.cls-1{fill:#231815;}.cls-2{fill:#fff;}</style>
<path class="cls-1" d="M325.57,330.66a59.9,59.9,0,0,0,58.79-52.34c3.7-30-17-58.47-46.46-64.86l5.24,5.24c-9.07-28.39-33.17-50.81-62.81-56a82.4,82.4,0,0,0-82.71,35.25l8.47-3.45c-31.4-9.69-66.35,3.77-82.26,32.77-15.16,27.65-9.62,63.37,13.66,84.79a70.91,70.91,0,0,0,47.42,18.61c9.66.11,9.66-14.89,0-15-24.5-.27-46.36-16.6-52.84-40.4a55.22,55.22,0,0,1,25.59-61.82c13.58-7.83,29.54-9.09,44.43-4.49,3.34,1,6.63-.74,8.47-3.45C225.22,184,252,172.37,277.73,177.4a67.05,67.05,0,0,1,50.95,45.29,7.54,7.54,0,0,0,5.24,5.24c22.53,4.89,38.5,25.75,35.61,49-2.74,22.09-22,38.41-44,38.7-9.64.13-9.67,15.13,0,15Z"/>
<line class="cls-2" x1="219.97" x2="212.6" y1="331.2" y2="312"/>
<path class="cls-1" d="M227.2,329.21,219.83,310c-1.45-3.78-5-6.39-9.23-5.24-3.61,1-6.7,5.42-5.24,9.23l7.37,19.2c1.45,3.78,5,6.39,9.23,5.24,3.61-1,6.7-5.42,5.24-9.23Z"/>
<line class="cls-2" x1="257.93" x2="250.56" y1="331.2" y2="312"/>
<path class="cls-1" d="M265.16,329.21,257.79,310c-1.45-3.78-5-6.39-9.23-5.24-3.61,1-6.7,5.42-5.24,9.23l7.37,19.2c1.45,3.78,5,6.39,9.23,5.24,3.61-1,6.7-5.42,5.24-9.23Z"/>
<line class="cls-2" x1="295.89" x2="288.52" y1="331.2" y2="312"/>
<path class="cls-1" d="M303.12,329.21,295.75,310c-1.45-3.78-5-6.39-9.23-5.24-3.61,1-6.7,5.42-5.24,9.23l7.37,19.2c1.45,3.78,5,6.39,9.23,5.24,3.61-1,6.7-5.42,5.24-9.23Z"/>
</svg> -->

<svg viewBox="0 0 500 328.9">
<style type="text/css">
	.st0{fill:#231815;}
	.st1{fill:none;}
</style>
<g>
	<path class="st0" d="M390.1,314c55.5-0.6,102.1-42,109.1-97.1c6.9-55.7-31.5-108.5-86.2-120.4l9.7,9.7
		C405.9,53.6,361.2,12,306.2,2.3C246.6-8.2,186.4,17.5,152.7,67.7l15.7-6.4c-58.3-18-123.1,7-152.7,60.8
		c-28.1,51.3-17.9,117.6,25.3,157.3c24,22,55.4,34.3,88,34.5c17.9,0.2,17.9-27.6,0-27.8c-45.5-0.5-86-30.8-98.1-75
		c-11.8-44.6,7.7-91.5,47.5-114.7c25.2-14.5,54.8-16.9,82.4-8.3c6.2,1.9,12.3-1.4,15.7-6.4c27.2-39.9,76.9-61.5,124.6-52.2
		c44.5,8.7,80.7,40.9,94.5,84c1.3,4.7,5,8.4,9.7,9.7c41.8,9.1,71.4,47.8,66.1,90.9c-5.1,41-40.8,71.3-81.7,71.8
		C372.1,286.4,372.1,314.2,390.1,314L390.1,314z"/>
	<line class="st1" x1="194.1" y1="315" x2="180.5" y2="279.4"/>
	<path class="st0" d="M207.6,311.3l-13.7-35.6c-2.7-7-9.3-11.9-17.1-9.7c-6.7,1.9-12.4,10.1-9.7,17.1l13.7,35.6
		c2.7,7,9.3,11.9,17.1,9.7C204.5,326.6,210.3,318.4,207.6,311.3L207.6,311.3z"/>
	<line class="st1" x1="264.6" y1="315" x2="250.9" y2="279.4"/>
	<path class="st0" d="M278,311.3l-13.7-35.6c-2.7-7-9.3-11.9-17.1-9.7c-6.7,1.9-12.4,10.1-9.7,17.1l13.7,35.6
		c2.7,7,9.3,11.9,17.1,9.7C275,326.6,280.7,318.4,278,311.3L278,311.3z"/>
	<line class="st1" x1="335" y1="315" x2="321.4" y2="279.4"/>
	<path class="st0" d="M348.4,311.3l-13.7-35.6c-2.7-7-9.3-11.9-17.1-9.7c-6.7,1.9-12.4,10.1-9.7,17.1l13.7,35.6
		c2.7,7,9.3,11.9,17.1,9.7C345.4,326.6,351.2,318.4,348.4,311.3L348.4,311.3z"/>
</g>
</svg>
