<svg viewBox="0 0 70.8 53.8">
<style type="text/css">
	.st0{fill:none;stroke:#252A3F;stroke-width:3;stroke-linecap:round;stroke-linejoin:round;stroke-miterlimit:10;}
</style>

<g>
	<g>
		<path class="st0" d="M36,19.7c1.6-1.8,3.7-3,6.2-3.5c5.9-1,11.5,2.9,12.6,8.8c0.9,4.9-1.7,9.6-5.9,11.6"/>
	</g>
</g>
<g>
	

	<g>
		<path class="st0" d="M43.1,32.1c3.8,0.9,6.7,4.3,6.7,8.4c0,4.8-3.9,8.6-8.6,8.6H13.3c-4.8,0-8.6-3.4-8.6-8.2
			c0-4.1,2.8-7.5,6.6-8.4c-0.2-0.7-0.4-1.4-0.4-2.2c0-3.8,3.1-6.9,6.9-6.9c1.9,0,3.6,0.8,4.9,2l0,0c1.7-3.7,5.4-6.3,9.8-6.3
			c5.9,0,10.8,4.8,10.8,10.7C43.3,30.6,43.1,32.1,43.1,32.1L43.1,32.1z"/>
	</g>
</g>
<g>
	

	<g>
		<line class="st0" x1="44.1" y1="8.8" x2="44.1" y2="4.5"/>
	</g>
</g>
<g>
	

	<g>
		<line class="st0" x1="61.9" y1="28.6" x2="66.1" y2="28.5"/>
	</g>
</g>
<g>
	

	<g>
		<line class="st0" x1="57.6" y1="14.1" x2="60.5" y2="11.1"/>
	</g>
</g>
<g>
	

	<g>
		<line class="st0" x1="29.7" y1="14.1" x2="26.7" y2="11.1"/>
	</g>
</g>
<g>
	

	<g>
		<line class="st0" x1="58.9" y1="43.8" x2="55.9" y2="40.8"/>
	</g>
</g>
</svg>
