<svg viewBox="0 0 68.9 68.6">
<style type="text/css">
	.st0{fill:none;stroke:#231F20;stroke-miterlimit:10;}
	.st1{fill:none;stroke:#252A3F;stroke-width:3;stroke-linecap:round;stroke-linejoin:round;stroke-miterlimit:10;}
	.st2{fill:#FFFFFF;}
</style>
<g>
	<g>
		<g>
			<g>
				<path class="st0" d="M51,34.4c0,9.1-7.4,16.6-16.6,16.6c-9.1,0-16.6-7.4-16.6-16.6c0-9.1,7.4-16.6,16.6-16.6
					C43.6,17.8,51,25.2,51,34.4z"/>
				<path class="st1" d="M51,34.4c0,9.1-7.4,16.6-16.6,16.6c-9.1,0-16.6-7.4-16.6-16.6c0-9.1,7.4-16.6,16.6-16.6
					C43.6,17.8,51,25.2,51,34.4z"/>
			</g>
			<g>
				<line class="st2" x1="34.5" y1="9.8" x2="34.5" y2="4.6"/>
				<line class="st0" x1="34.5" y1="9.8" x2="34.5" y2="4.6"/>
				<line class="st1" x1="34.5" y1="9.8" x2="34.5" y2="4.6"/>
			</g>
			<g>
				<line class="st2" x1="4.8" y1="34.4" x2="10" y2="34.4"/>
				<line class="st0" x1="4.8" y1="34.4" x2="10" y2="34.4"/>
				<line class="st1" x1="4.8" y1="34.4" x2="10" y2="34.4"/>
			</g>
			<g>
				<line class="st2" x1="51.8" y1="51.7" x2="55.9" y2="55.8"/>
				<line class="st0" x1="51.8" y1="51.7" x2="55.9" y2="55.8"/>
				<line class="st1" x1="51.8" y1="51.7" x2="55.9" y2="55.8"/>
			</g>
			<g>
				<line class="st2" x1="13.1" y1="12.9" x2="17.2" y2="17"/>
				<line class="st0" x1="13.1" y1="12.9" x2="17.2" y2="17"/>
				<line class="st1" x1="13.1" y1="12.9" x2="17.2" y2="17"/>
			</g>
			<g>
				<line class="st2" x1="17.2" y1="51.7" x2="13.1" y2="55.8"/>
				<line class="st0" x1="17.2" y1="51.7" x2="13.1" y2="55.8"/>
				<line class="st1" x1="17.2" y1="51.7" x2="13.1" y2="55.8"/>
			</g>
			<g>
				<line class="st2" x1="55.9" y1="12.9" x2="51.8" y2="17"/>
				<line class="st0" x1="55.9" y1="12.9" x2="51.8" y2="17"/>
				<line class="st1" x1="55.9" y1="12.9" x2="51.8" y2="17"/>
			</g>
			<g>
				<g>
					<line class="st2" x1="51.8" y1="17" x2="55.9" y2="12.9"/>
					<line class="st0" x1="51.8" y1="17" x2="55.9" y2="12.9"/>
					<line class="st1" x1="51.8" y1="17" x2="55.9" y2="12.9"/>
				</g>
				<g>
					<line class="st2" x1="13.1" y1="55.8" x2="17.2" y2="51.7"/>
					<line class="st0" x1="13.1" y1="55.8" x2="17.2" y2="51.7"/>
					<line class="st1" x1="13.1" y1="55.8" x2="17.2" y2="51.7"/>
				</g>
				<g>
					<line class="st2" x1="51.8" y1="51.7" x2="55.9" y2="55.8"/>
					<line class="st0" x1="51.8" y1="51.7" x2="55.9" y2="55.8"/>
					<line class="st1" x1="51.8" y1="51.7" x2="55.9" y2="55.8"/>
				</g>
				<g>
					<line class="st2" x1="13" y1="13" x2="17.1" y2="17.1"/>
					<line class="st0" x1="13" y1="13" x2="17.1" y2="17.1"/>
					<line class="st1" x1="13" y1="13" x2="17.1" y2="17.1"/>
				</g>
				<g>
					<line class="st2" x1="34.4" y1="58.9" x2="34.4" y2="64.1"/>
					<line class="st0" x1="34.4" y1="58.9" x2="34.4" y2="64.1"/>
					<line class="st1" x1="34.4" y1="58.9" x2="34.4" y2="64.1"/>
				</g>
				<g>
					<line class="st2" x1="34.4" y1="4.7" x2="34.4" y2="9.9"/>
					<line class="st0" x1="34.4" y1="4.7" x2="34.4" y2="9.9"/>
					<line class="st1" x1="34.4" y1="4.7" x2="34.4" y2="9.9"/>
				</g>
				<g>
					<line class="st2" x1="9.9" y1="34.4" x2="4.7" y2="34.4"/>
					<line class="st0" x1="9.9" y1="34.4" x2="4.7" y2="34.4"/>
					<line class="st1" x1="9.9" y1="34.4" x2="4.7" y2="34.4"/>
				</g>
				<g>
					<line class="st2" x1="64.1" y1="34.4" x2="58.9" y2="34.4"/>
					<line class="st0" x1="64.1" y1="34.4" x2="58.9" y2="34.4"/>
					<line class="st1" x1="64.1" y1="34.4" x2="58.9" y2="34.4"/>
				</g>
			</g>
		</g>
	</g>
</g>
</svg>
