<svg viewBox="0 0 32 32" fill="none">
    <path d="M15.519 7.673c0 4.193-3.432 7.627-7.627 7.627-4.191 0-7.623-3.434-7.623-7.627S3.701.046 7.892.046c4.195 0 7.627 3.433 7.627 7.627" fill="#F4D864"></path><path d="M6.606 21.759c-2.892 0-5.246-2.33-5.246-5.193 0-2.865 2.354-5.195 5.246-5.195h1.031l.41-1.002c.723-3.771 4.068-6.51 7.953-6.51 3.881 0 7.225 2.738 7.947 6.51l.199 1.043 1.084-.027c3.065 0 5.41 2.324 5.41 5.182 0 2.863-2.356 5.193-5.252 5.193H6.606v-.001z" fill="#FFF"></path><path d="M16.001 5.108c3.283 0 6.109 2.311 6.721 5.496l.4 2.094 2.133-.068.09-.008.045-.002c2.207 0 4.002 1.77 4.002 3.943 0 2.178-1.795 3.945-4.002 3.945H6.606c-2.205 0-3.996-1.768-3.996-3.945 0-2.174 1.791-3.943 3.959-3.943l.111.006.029.002 2.158.096.406-2.119c.611-3.186 3.441-5.497 6.728-5.497m0-2.498c-4.566 0-8.359 3.238-9.18 7.523-.07-.004-.141-.012-.215-.012-3.588 0-6.494 2.885-6.494 6.441 0 3.561 2.906 6.443 6.494 6.443H25.39c3.59 0 6.498-2.883 6.498-6.443 0-3.557-2.908-6.441-6.498-6.441-.072 0-.144.008-.215.012-.822-4.284-4.617-7.523-9.174-7.523" fill="#CCC"></path><path d="M25.39 19.071c-.07 0-.142.008-.215.01-.822-4.287-4.617-7.523-9.174-7.523-4.566 0-8.359 3.236-9.18 7.523-.07-.002-.141-.01-.215-.01-3.588 0-6.494 2.883-6.494 6.441 0 3.561 2.906 6.441 6.494 6.441H25.39c3.59 0 6.498-2.881 6.498-6.441 0-3.558-2.908-6.441-6.498-6.441" fill="#CCC"></path>
</svg>